<?xml version="1.0" encoding="UTF-8"?>
<svg id="Layer_2" xmlns="http://www.w3.org/2000/svg" viewBox="0 0 599.26 237.35">
  <defs>
    <style>
      .cls-1 {
        fill: #198961;
      }

      .cls-2 {
        fill: #0c8;
      }

      .cls-3 {
        fill: #0c8;
      }

      .cls-4 {
        fill: #ccffeb;
      }

      .cls-5 {
        fill: #186849;
      }
    </style>
  </defs>
  <g id="Layer_1-2" data-name="Layer_1">
    <path class="cls-1" d="M0,54.06h5.74L24.56,0h13.16l18.81,54.06h5.74v8.66h-23.58v-8.66h6.18l-3.89-11.75h-19.79l-3.89,11.75h6.18v8.66H0v-8.66ZM38.34,33.3l-5.92-17.75c-.97-3.09-1.15-5.48-1.15-5.48h-.27s-.26,2.38-1.15,5.48l-6.01,17.75h14.49Z"/>
    <path class="cls-1" d="M204.41,156.09h24.47v8.75h-7.33l8.13,35.78c.53,2.56.71,5.48.71,5.48h.35s.27-2.92.97-5.48l11.75-44.52h9.27l11.75,44.52c.71,2.56.97,5.48.97,5.48h.35s.18-2.92.71-5.48l8.13-35.78h-7.33v-8.75h24.47v8.75h-5.74l-13.34,53.97h-12.99l-10.51-39.57c-.71-2.56-.97-5.74-.97-5.74h-.26s-.27,3.18-.97,5.74l-10.51,39.57h-12.99l-13.34-53.97h-5.74v-8.75Z"/>
    <path class="cls-1" d="M362.53,172.69c9.63,0,12.98,6.36,12.98,6.36h.18s-.18-1.33-.18-3.18v-11.4h-6.98v-8.39h18.11v52.38c0,1.33.71,1.94,1.94,1.94h4.06v8.39h-10.6c-4.06,0-5.74-2.21-5.74-4.77v-.53c0-1.24.26-2.03.26-2.03h-.18s-3.53,8.39-14.75,8.39c-12.01,0-19.7-9.63-19.7-23.58s8.39-23.58,20.58-23.58ZM364.38,210.41c5.92,0,11.4-4.24,11.4-13.87,0-7.33-3.62-14.22-11.04-14.22-6.36,0-11.48,5.04-11.48,13.96s4.59,14.13,11.13,14.13Z"/>
    <path class="cls-1" d="M456.07,210.41h6.54v-28.27h-6.98v-8.39h18.2v36.66h6.45v8.39h-24.2v-8.39ZM462.52,156.09h11.31v9.98h-11.31v-9.98Z"/>
    <path class="cls-1" d="M486.99,210.41h6.54v-26.32c0-1.24-.71-1.94-1.94-1.94h-5.03v-8.39h11.84c3.98,0,5.83,1.85,5.83,5.04v2.03c0,.97-.18,1.94-.18,1.94h.18c.53-1.41,5.3-10.07,16.61-10.07,9.63,0,15.11,5.21,15.11,17.14v20.58h6.54v8.39h-17.67v-26.68c0-5.48-1.5-9.19-7.16-9.19-8.13,0-12.9,7.77-12.9,15.63v11.84h6.45v8.39h-24.2v-8.39Z"/>
    <path class="cls-1" d="M567.82,228.17c6.89,0,12.72-3,12.72-11.31v-2.83c0-1.06.18-2.39.18-2.39h-.18c-2.65,3.98-6.54,6.27-12.54,6.27-12.99,0-20.23-10.42-20.23-22.79s6.98-22.44,19.96-22.44c5.39,0,11.48,2.03,13.96,6.8h.18s-.18-.62-.18-1.5c0-2.39,1.59-4.24,5.12-4.24h11.22v8.39h-4.33c-1.15,0-1.94.62-1.94,1.77v32.15c0,15.46-12.01,21.29-23.76,21.29-5.65,0-11.66-1.59-16.08-3.89l3.45-8.3s5.56,3,12.46,3ZM580.8,195.22c0-10.25-5.12-12.99-11.13-12.99-6.8,0-10.6,4.95-10.6,12.54s4.06,13.69,11.31,13.69c5.3,0,10.42-3.09,10.42-13.25Z"/>
    <path class="cls-1" d="M445.21,210.41c-1.24,0-1.94-.62-1.94-1.94v-52.38h-18.11v8.39h6.98v11.4c0,1.85.18,3.18.18,3.18h-.18s-.05-.09-.13-.23v10.53h5.71v14.76h-5.71v9.08c.7-1.01,1.02-1.73,1.02-1.73h.18s-.26.79-.26,2.03v.53c0,2.56,1.68,4.77,5.74,4.77h10.6v-8.39h-4.06Z"/>
    <g>
      <path class="cls-1" d="M0,76.5h24.47v8.75h-7.33l8.13,35.77c.53,2.56.71,5.48.71,5.48h.35s.27-2.92.97-5.48l11.75-44.52h9.27l11.75,44.52c.71,2.56.97,5.48.97,5.48h.35s.18-2.92.71-5.48l8.13-35.77h-7.33v-8.75h24.47v8.75h-5.74l-13.34,53.97h-12.99l-10.51-39.57c-.71-2.56-.97-5.74-.97-5.74h-.26s-.27,3.18-.97,5.74l-10.51,39.57h-12.99l-13.34-53.97H0v-8.75Z"/>
      <path class="cls-1" d="M91.16,130.83h6.54v-28.27h-6.98v-8.39h18.2v36.66h6.45v8.39h-24.2v-8.39Z"/>
      <path class="cls-1" d="M124.11,84.89h-6.98v-8.39h18.11v47.7c0,4.06.88,6.18,4.59,6.18,1.24,0,2.12-.09,2.12-.09v9.01s-1.86.27-4.06.27c-7.16,0-13.78-2.38-13.78-14.66v-40.01Z"/>
      <path class="cls-1" d="M257.85,109.1h26.59v9.81h-26.59v-9.81Z"/>
      <path class="cls-1" d="M313.94,113.6v16.96h8.3v8.66h-27.38v-8.66h7.51v-45.32h-7.51v-8.75h19.08v37.1Z"/>
      <path class="cls-1" d="M407.05,93.11c12.99,0,20.05,9.45,20.05,21.38,0,1.33-.26,3.8-.26,3.8h-31.18c.71,8.3,6.71,12.54,13.51,12.54,7.33,0,13.07-4.77,13.07-4.77l4.33,7.95s-6.89,6.27-18.2,6.27c-14.93,0-24.2-10.78-24.2-23.58,0-13.87,9.36-23.58,22.88-23.58ZM415.53,111.66c-.18-6.18-3.98-9.89-8.75-9.89-5.74,0-9.8,3.97-10.87,9.89h19.61Z"/>
      <path class="cls-1" d="M434.43,130.83h6.54v-26.32c0-1.24-.71-1.94-1.94-1.94h-5.03v-8.39h11.84c3.98,0,5.83,1.85,5.83,5.03v2.03c0,.97-.18,1.94-.18,1.94h.18c.53-1.41,5.3-10.07,16.61-10.07,9.63,0,15.11,5.21,15.11,17.14v20.58h6.54v8.39h-17.67v-26.68c0-5.48-1.5-9.19-7.16-9.19-8.13,0-12.9,7.77-12.9,15.63v11.84h6.45v8.39h-24.2v-8.39Z"/>
      <path class="cls-1" d="M519.15,93.11c7.51,0,18.46,2.83,18.46,10.78v6.18h-9.72v-3c0-3-4.59-4.42-8.39-4.42-8.21,0-13.25,5.65-13.25,13.87,0,9.28,6.45,14.31,14.13,14.31,6.36,0,11.57-3.53,14.04-5.48l3.97,7.95c-3.09,2.92-10.07,6.98-18.64,6.98-13.16,0-24.82-8.92-24.82-23.5,0-13.43,10.33-23.67,24.2-23.67Z"/>
      <path class="cls-1" d="M543.79,130.83h6.54v-45.93h-6.98v-8.39h18.2v21.91c0,2.21-.26,3.8-.26,3.8h.18c2.21-4.33,7.77-9.1,15.55-9.1,9.98,0,15.72,5.21,15.72,17.14v20.58h6.54v8.39h-17.75v-26.68c0-5.48-1.41-9.19-7.07-9.19-7.95,0-12.9,6.89-12.9,15.19v12.28h6.45v8.39h-24.2v-8.39Z"/>
      <path class="cls-2" d="M98.53,77.06c-3.07,3.3-3.92,7.86-2.62,11.86,4.08,1.01,8.57-.16,11.64-3.46,3.07-3.3,3.92-7.86,2.62-11.86-4.08-1.01-8.57.16-11.64,3.46Z"/>
      <g>
        <path class="cls-5" d="M321.42,76.5h-7.47v37.1h7.47c1.82,0,3.63-.17,5.42-.49v-37.1c-1.78.32-3.6.49-5.42.49Z"/>
        <rect class="cls-3" x="343.18" y="72.88" width="14.62" height="37.1"/>
        <path class="cls-4" d="M342.05,72.88c-3.52,0-7.01.61-10.32,1.81-1.6.58-3.23,1.02-4.9,1.32v37.1c1.66-.3,3.3-.74,4.9-1.32,3.31-1.2,6.8-1.81,10.32-1.81h1.13v-37.1h-1.13Z"/>
      </g>
      <path class="cls-1" d="M345.83,130.83h6.54v-26.32c0-1.24-.71-1.94-1.94-1.94h-5.03v-8.39h11.75c3.97,0,6.01,1.68,6.01,5.48v2.65c0,1.68-.18,2.83-.18,2.83h.18c2.03-6.45,7.42-11.57,14.31-11.57,1.06,0,2.03.18,2.03.18v11.04s-1.15-.18-2.74-.18c-9.1,0-13.16,7.95-13.16,16.43v9.81h6.45v8.39h-24.2v-8.39Z"/>
      <path class="cls-1" d="M227.29,93.2c12.99,0,20.05,9.45,20.05,21.38,0,1.33-.26,3.8-.26,3.8h-31.18c.71,8.3,6.71,12.54,13.51,12.54,7.33,0,13.07-4.77,13.07-4.77l4.33,7.95s-6.89,6.27-18.2,6.27c-14.93,0-24.2-10.78-24.2-23.58,0-13.87,9.36-23.58,22.88-23.58ZM235.77,111.75c-.18-6.18-3.98-9.89-8.75-9.89-5.74,0-9.8,3.98-10.87,9.89h19.61Z"/>
    </g>
    <path class="cls-1" d="M192.57,76.5v52.38c0,1.33.71,1.94,1.94,1.94h4.06v8.39h-10.6c-4.06,0-5.74-2.21-5.74-4.77v-.53c0-1.24.26-2.03.26-2.03h-.18s-3.53,8.39-14.75,8.39c-12.01,0-19.7-9.63-19.7-23.58s8.39-23.58,20.58-23.58c9.63,0,12.98,6.36,12.98,6.36h.18s-.18-1.33-.18-3.18v-19.79M170.31,130.83c5.92,0,11.4-4.24,11.4-13.87,0-7.33-3.62-14.22-11.04-14.22-6.36,0-11.48,5.03-11.48,13.96s4.59,14.13,11.13,14.13Z"/>
    <path class="cls-1" d="M417.56,172.43c-13.22,0-23.94,10.72-23.94,23.94s10.72,23.94,23.94,23.94,23.94-10.72,23.94-23.94-10.72-23.94-23.94-23.94ZM432.9,194.46h-7.78l-8.14,3.85h15.92v3.17h-15.95l10,4.72-7.08-.07-9.85-4.65h-7.78v-3.17h7.8l8.14-3.85h-15.94v-3.17h15.91l-9.97-4.72,6.89-.03,10.02,4.75h7.81v3.17Z"/>
    <path class="cls-1" d="M322.56,203.3c-2.37,3.89-6.64,6.5-11.53,6.5-7.46,0-13.52-6.05-13.52-13.52s6.05-13.52,13.52-13.52,13.52,6.05,13.52,13.52h10.37c-.02-13.2-10.73-23.9-23.94-23.9s-23.94,10.72-23.94,23.94,10.72,23.94,23.94,23.94c8.68,0,16.29-4.62,20.48-11.54l-8.9-5.42Z"/>
    <rect class="cls-3" x="284.08" y="188.86" width="53.89" height="13.78"/>
  </g>
</svg>